<svg width="400" height="400" viewBox="0 0 400 400" fill="none" xmlns="http://www.w3.org/2000/svg">
  <!-- Background -->
  <rect width="400" height="400" fill="#1F2937"/>
  
  <!-- Stars -->
  <circle cx="50" cy="60" r="2" fill="white" opacity="0.8"/>
  <circle cx="120" cy="40" r="2" fill="white" opacity="0.6"/>
  <circle cx="200" cy="30" r="2" fill="white" opacity="0.7"/>
  <circle cx="280" cy="50" r="2" fill="white" opacity="0.8"/>
  <circle cx="350" cy="70" r="2" fill="white" opacity="0.6"/>
  <circle cx="30" cy="150" r="2" fill="white" opacity="0.7"/>
  <circle cx="90" cy="180" r="2" fill="white" opacity="0.8"/>
  <circle cx="320" cy="160" r="2" fill="white" opacity="0.6"/>
  <circle cx="380" cy="190" r="2" fill="white" opacity="0.7"/>
  
  <!-- Moon -->
  <circle cx="300" cy="100" r="40" fill="#D1D5DB"/>
  <circle cx="280" cy="90" r="15" fill="#1F2937"/>
  
  <!-- City Skyline -->
  <path d="M0 400 L0 250 L40 250 L40 300 L80 300 L80 200 L120 200 L120 280 L160 280 L160 150 L200 150 L200 350 L240 350 L240 220 L280 220 L280 300 L320 300 L320 180 L360 180 L360 250 L400 250 L400 400 Z" fill="#4B5563"/>
  
  <!-- Windows -->
  <rect x="50" cy="280" width="10" height="10" fill="#F9FAFB" opacity="0.6"/>
  <rect x="90" cy="220" width="10" height="10" fill="#F9FAFB" opacity="0.5"/>
  <rect x="170" cy="180" width="10" height="10" fill="#F9FAFB" opacity="0.7"/>
  <rect x="250" cy="240" width="10" height="10" fill="#F9FAFB" opacity="0.6"/>
  <rect x="330" cy="200" width="10" height="10" fill="#F9FAFB" opacity="0.5"/>
</svg> 