<svg width="400" height="400" viewBox="0 0 400 400" fill="none" xmlns="http://www.w3.org/2000/svg">
  <!-- Background -->
  <rect width="400" height="400" fill="#3B82F6"/>
  
  <!-- Abstract Sound Waves -->
  <path d="M0 200 Q100 150 200 200 Q300 250 400 200" stroke="white" stroke-width="4" opacity="0.3"/>
  <path d="M0 180 Q100 230 200 180 Q300 130 400 180" stroke="white" stroke-width="4" opacity="0.2"/>
  <path d="M0 220 Q100 170 200 220 Q300 270 400 220" stroke="white" stroke-width="4" opacity="0.4"/>
  
  <!-- City Buildings -->
  <rect x="50" y="100" width="60" height="300" fill="#1E40AF"/>
  <rect x="130" y="150" width="40" height="250" fill="#1E40AF"/>
  <rect x="190" y="50" width="80" height="350" fill="#1E40AF"/>
  <rect x="290" y="120" width="50" height="280" fill="#1E40AF"/>
  
  <!-- Building Windows -->
  <rect x="60" y="120" width="40" height="5" fill="white" opacity="0.6"/>
  <rect x="60" y="140" width="40" height="5" fill="white" opacity="0.5"/>
  <rect x="60" y="160" width="40" height="5" fill="white" opacity="0.7"/>
  
  <rect x="140" y="170" width="20" height="5" fill="white" opacity="0.6"/>
  <rect x="140" y="190" width="20" height="5" fill="white" opacity="0.5"/>
  
  <rect x="200" y="70" width="60" height="5" fill="white" opacity="0.7"/>
  <rect x="200" y="90" width="60" height="5" fill="white" opacity="0.6"/>
  <rect x="200" y="110" width="60" height="5" fill="white" opacity="0.5"/>
  
  <rect x="300" y="140" width="30" height="5" fill="white" opacity="0.6"/>
  <rect x="300" y="160" width="30" height="5" fill="white" opacity="0.7"/>
</svg> 