<svg width="200" height="200" viewBox="0 0 200 200" fill="none" xmlns="http://www.w3.org/2000/svg">
  <!-- Background -->
  <circle cx="100" cy="100" r="100" fill="#6366F1"/>
  
  <!-- Abstract City Skyline -->
  <path d="M40 160 L40 120 L60 120 L60 140 L80 140 L80 100 L100 100 L100 130 L120 130 L120 80 L140 80 L140 150 L160 150 L160 110 L160 160" fill="#4338CA"/>
  
  <!-- Sound Wave -->
  <path d="M40 80 Q70 60 100 80 Q130 100 160 80" stroke="white" stroke-width="4"/>
  <path d="M40 90 Q70 70 100 90 Q130 110 160 90" stroke="white" stroke-width="4" opacity="0.7"/>
  <path d="M40 70 Q70 50 100 70 Q130 90 160 70" stroke="white" stroke-width="4" opacity="0.5"/>
  
  <!-- Musical Note -->
  <circle cx="100" cy="50" r="15" fill="white"/>
  <path d="M115 50 L115 30" stroke="white" stroke-width="4"/>
</svg> 